# xmcd
# 
# Track frame offsets:
#     150
#     15290
#     28741
#     46493
#     62297
#     82236
#     96073
#     112704
#     126488
#     137955
#     152685
# 
# Disc length: 2187
# 
# Revision: 0
# Processed by: cddbd v1.5.2PL0 Copyright (c) Steve Scherf et al.
# Submitted via: BonkEnc v1.0.6
# 
DISCID=8708890b
DTITLE=variou artists - HMG Nashville Country Vol. 31
DYEAR=2005
DGENRE=Country
TTITLE0=nick ashton and tin rooster - the one
TTITLE1=brandon caserta - have you to hold
TTITLE2=gary meggs - mama green
TTITLE3=chere - beer bottle brown
TTITLE4=john grey - trucker's anthem
TTITLE5=jimmie wilson - what else could go right
TTITLE6=brittany wilson - flying over boulder
TTITLE7=ashleigh elaine - i'm loving a good man tonight
TTITLE8=ed suey - america bless god
TTITLE9=bobby hoover - livin' proof
TTITLE10=clifford peterson - why did you stop loving me
EXTD=
EXTT0=
EXTT1=
EXTT2=
EXTT3=
EXTT4=
EXTT5=
EXTT6=
EXTT7=
EXTT8=
EXTT9=
EXTT10=
PLAYORDER=
